HIERARCHY
ROOT Root
{
  OFFSET 0.0 0.0 0.0
  CHANNELS 6 Xposition Yposition Zposition Zrotation Yrotation Xrotation
  JOINT Hips
  {
    OFFSET 0.0 100.0 0.0
    CHANNELS 6 Xposition Yposition Zposition Zrotation Yrotation Xrotation
    JOINT Spine1
    {
      OFFSET 5.003913 -0.037094 -0.013727
      CHANNELS 3 Zrotation Yrotation Xrotation
      JOINT Spine2
      {
        OFFSET 7.125363 -1e-06 0.0
        CHANNELS 3 Zrotation Yrotation Xrotation
        JOINT Chest
        {
          OFFSET 7.594027 1e-06 0.0
          CHANNELS 3 Zrotation Yrotation Xrotation
          JOINT Neck1
          {
            OFFSET 26.313086 -0.460272 -0.181672
            CHANNELS 3 Zrotation Yrotation Xrotation
            JOINT Neck2
            {
              OFFSET 8.045911 0.0 0.0
              CHANNELS 3 Zrotation Yrotation Xrotation
              JOINT Head
              {
                OFFSET 6.432774 0.0 0.0
                CHANNELS 3 Zrotation Yrotation Xrotation
                JOINT HeadEnd
                {
                  OFFSET 16.169773 0.06451 0.00362
                  CHANNELS 3 Zrotation Yrotation Xrotation
                }
                JOINT Jaw
                {
                  OFFSET 0.108741 3.12938 0.002639
                  CHANNELS 3 Zrotation Yrotation Xrotation
                }
                JOINT LeftEye
                {
                  OFFSET 4.45173 8.166359 3.206392
                  CHANNELS 3 Zrotation Yrotation Xrotation
                }
                JOINT RightEye
                {
                  OFFSET 4.436895 8.135758 -3.222429
                  CHANNELS 3 Zrotation Yrotation Xrotation
                }
              }
            }
          }
          JOINT LeftShoulder
          {
            OFFSET 23.218927 5.195579 1.621656
            CHANNELS 3 Zrotation Yrotation Xrotation
            JOINT LeftArm
            {
              OFFSET 15.902118 2e-06 -2e-06
              CHANNELS 3 Zrotation Yrotation Xrotation
              JOINT LeftForeArm
              {
                OFFSET 28.739307 0.0 -1e-06
                CHANNELS 3 Zrotation Yrotation Xrotation
                JOINT LeftHand
                {
                  OFFSET 27.093981 -4e-06 0.0
                  CHANNELS 3 Zrotation Yrotation Xrotation
                  JOINT LeftHandThumb1
                  {
                    OFFSET 2.276781 3.380274 0.83384
                    CHANNELS 3 Zrotation Yrotation Xrotation
                    JOINT LeftHandThumb2
                    {
                      OFFSET 4.705309 -1e-06 -1e-06
                      CHANNELS 3 Zrotation Yrotation Xrotation
                      JOINT LeftHandThumb3
                      {
                        OFFSET 2.798515 0.0 3e-06
                        CHANNELS 3 Zrotation Yrotation Xrotation
                        JOINT LeftHandThumbEnd
                        {
                          OFFSET 3.180793 4e-06 -4e-06
                          CHANNELS 3 Zrotation Yrotation Xrotation
                        }
                      }
                    }
                  }
                  JOINT LeftHandIndex1
                  {
                    OFFSET 3.247786 2.352677 0.137192
                    CHANNELS 3 Zrotation Yrotation Xrotation
                    JOINT LeftHandIndex2
                    {
                      OFFSET 6.367095 1e-06 0.0
                      CHANNELS 3 Zrotation Yrotation Xrotation
                      JOINT LeftHandIndex3
                      {
                        OFFSET 3.662364 0.0 0.0
                        CHANNELS 3 Zrotation Yrotation Xrotation
                        JOINT LeftHandIndex4
                        {
                          OFFSET 2.329242 4e-06 -4e-06
                          CHANNELS 3 Zrotation Yrotation Xrotation
                          JOINT LeftHandIndexEnd
                          {
                            OFFSET 2.767823 1e-06 0.0
                            CHANNELS 3 Zrotation Yrotation Xrotation
                          }
                        }
                      }
                    }
                  }
                  JOINT LeftHandMiddle1
                  {
                    OFFSET 3.163612 0.945023 -0.406112
                    CHANNELS 3 Zrotation Yrotation Xrotation
                    JOINT LeftHandMiddle2
                    {
                      OFFSET 6.276789 3e-06 0.0
                      CHANNELS 3 Zrotation Yrotation Xrotation
                      JOINT LeftHandMiddle3
                      {
                        OFFSET 4.35652 -1e-06 4e-06
                        CHANNELS 3 Zrotation Yrotation Xrotation
                        JOINT LeftHandMiddle4
                        {
                          OFFSET 2.996877 0.0 8e-06
                          CHANNELS 3 Zrotation Yrotation Xrotation
                          JOINT LeftHandMiddleEnd
                          {
                            OFFSET 2.323256 3e-06 -4e-06
                            CHANNELS 3 Zrotation Yrotation Xrotation
                          }
                        }
                      }
                    }
                  }
                  JOINT LeftHandRing1
                  {
                    OFFSET 2.882606 -0.309162 0.107445
                    CHANNELS 3 Zrotation Yrotation Xrotation
                    JOINT LeftHandRing2
                    {
                      OFFSET 6.033198 0.0 4e-06
                      CHANNELS 3 Zrotation Yrotation Xrotation
                      JOINT LeftHandRing3
                      {
                        OFFSET 4.350578 3e-06 0.0
                        CHANNELS 3 Zrotation Yrotation Xrotation
                        JOINT LeftHandRing4
                        {
                          OFFSET 2.651321 2e-06 -7e-06
                          CHANNELS 3 Zrotation Yrotation Xrotation
                          JOINT LeftHandRingEnd
                          {
                            OFFSET 1.937663 1e-06 -4e-06
                            CHANNELS 3 Zrotation Yrotation Xrotation
                          }
                        }
                      }
                    }
                  }
                  JOINT LeftHandPinky1
                  {
                    OFFSET 2.865315 -1.525436 0.575687
                    CHANNELS 3 Zrotation Yrotation Xrotation
                    JOINT LeftHandPinky2
                    {
                      OFFSET 5.54936 1e-06 -8e-06
                      CHANNELS 3 Zrotation Yrotation Xrotation
                      JOINT LeftHandPinky3
                      {
                        OFFSET 3.070974 0.0 -4e-06
                        CHANNELS 3 Zrotation Yrotation Xrotation
                        JOINT LeftHandPinky4
                        {
                          OFFSET 1.549672 1e-06 0.0
                          CHANNELS 3 Zrotation Yrotation Xrotation
                          JOINT LeftHandPinkyEnd
                          {
                            OFFSET 1.952123 0.0 0.0
                            CHANNELS 3 Zrotation Yrotation Xrotation
                          }
                        }
                      }
                    }
                  }
                }
              }
            }
          }
          JOINT RightShoulder
          {
            OFFSET 23.161716 5.296122 -1.380114
            CHANNELS 3 Zrotation Yrotation Xrotation
            JOINT RightArm
            {
              OFFSET -16.027195 -2e-06 1.1e-05
              CHANNELS 3 Zrotation Yrotation Xrotation
              JOINT RightForeArm
              {
                OFFSET -28.736639 4e-06 2e-06
                CHANNELS 3 Zrotation Yrotation Xrotation
                JOINT RightHand
                {
                  OFFSET -27.133619 6e-06 0.0
                  CHANNELS 3 Zrotation Yrotation Xrotation
                  JOINT RightHandThumb1
                  {
                    OFFSET -2.274328 -3.351035 -0.83067
                    CHANNELS 3 Zrotation Yrotation Xrotation
                    JOINT RightHandThumb2
                    {
                      OFFSET -4.703594 -3e-06 2e-06
                      CHANNELS 3 Zrotation Yrotation Xrotation
                      JOINT RightHandThumb3
                      {
                        OFFSET -2.794935 -4e-06 -3e-06
                        CHANNELS 3 Zrotation Yrotation Xrotation
                        JOINT RightHandThumbEnd
                        {
                          OFFSET -3.183852 4e-06 1e-06
                          CHANNELS 3 Zrotation Yrotation Xrotation
                        }
                      }
                    }
                  }
                  JOINT RightHandIndex1
                  {
                    OFFSET -3.253496 -2.33755 -0.127667
                    CHANNELS 3 Zrotation Yrotation Xrotation
                    JOINT RightHandIndex2
                    {
                      OFFSET -6.344434 0.0 0.0
                      CHANNELS 3 Zrotation Yrotation Xrotation
                      JOINT RightHandIndex3
                      {
                        OFFSET -3.654871 0.0 -8e-06
                        CHANNELS 3 Zrotation Yrotation Xrotation
                        JOINT RightHandIndex4
                        {
                          OFFSET -2.327586 -1e-06 0.0
                          CHANNELS 3 Zrotation Yrotation Xrotation
                          JOINT RightHandIndexEnd
                          {
                            OFFSET -2.770001 3e-06 8e-06
                            CHANNELS 3 Zrotation Yrotation Xrotation
                          }
                        }
                      }
                    }
                  }
                  JOINT RightHandMiddle1
                  {
                    OFFSET -3.168223 -0.944764 0.411762
                    CHANNELS 3 Zrotation Yrotation Xrotation
                    JOINT RightHandMiddle2
                    {
                      OFFSET -6.266691 -1e-06 -4e-06
                      CHANNELS 3 Zrotation Yrotation Xrotation
                      JOINT RightHandMiddle3
                      {
                        OFFSET -4.348901 0.0 0.0
                        CHANNELS 3 Zrotation Yrotation Xrotation
                        JOINT RightHandMiddle4
                        {
                          OFFSET -3.00024 2e-06 -4e-06
                          CHANNELS 3 Zrotation Yrotation Xrotation
                          JOINT RightHandMiddleEnd
                          {
                            OFFSET -2.321477 -4e-06 -4e-06
                            CHANNELS 3 Zrotation Yrotation Xrotation
                          }
                        }
                      }
                    }
                  }
                  JOINT RightHandRing1
                  {
                    OFFSET -2.885654 0.293261 -0.119232
                    CHANNELS 3 Zrotation Yrotation Xrotation
                    JOINT RightHandRing2
                    {
                      OFFSET -6.032835 -1e-06 -4e-06
                      CHANNELS 3 Zrotation Yrotation Xrotation
                      JOINT RightHandRing3
                      {
                        OFFSET -4.33881 0.0 -4e-06
                        CHANNELS 3 Zrotation Yrotation Xrotation
                        JOINT RightHandRing4
                        {
                          OFFSET -2.654903 -4e-06 -4e-06
                          CHANNELS 3 Zrotation Yrotation Xrotation
                          JOINT RightHandRingEnd
                          {
                            OFFSET -1.935122 0.0 4e-06
                            CHANNELS 3 Zrotation Yrotation Xrotation
                          }
                        }
                      }
                    }
                  }
                  JOINT RightHandPinky1
                  {
                    OFFSET -2.866241 1.503904 -0.60527
                    CHANNELS 3 Zrotation Yrotation Xrotation
                    JOINT RightHandPinky2
                    {
                      OFFSET -5.553177 -2e-06 0.0
                      CHANNELS 3 Zrotation Yrotation Xrotation
                      JOINT RightHandPinky3
                      {
                        OFFSET -3.062664 -1e-06 -4e-06
                        CHANNELS 3 Zrotation Yrotation Xrotation
                        JOINT RightHandPinky4
                        {
                          OFFSET -1.546529 2e-06 4e-06
                          CHANNELS 3 Zrotation Yrotation Xrotation
                          JOINT RightHandPinkyEnd
                          {
                            OFFSET -1.952341 0.0 -4e-06
                            CHANNELS 3 Zrotation Yrotation Xrotation
                          }
                        }
                      }
                    }
                  }
                }
              }
            }
          }
        }
      }
    }
    JOINT LeftLeg
    {
      OFFSET -8.443107 2.567604 10.043214
      CHANNELS 3 Zrotation Yrotation Xrotation
      JOINT LeftShin
      {
        OFFSET 43.229198 1e-06 -1e-06
        CHANNELS 3 Zrotation Yrotation Xrotation
        JOINT LeftFoot
        {
          OFFSET 42.298611 1e-06 1e-06
          CHANNELS 3 Zrotation Yrotation Xrotation
          JOINT LeftToeBase
          {
            OFFSET 14.165858 1e-06 0.0
            CHANNELS 3 Zrotation Yrotation Xrotation
            JOINT LeftToeEnd
            {
              OFFSET 6.7141 -0.234461 0.0
              CHANNELS 3 Zrotation Yrotation Xrotation
            }
          }
        }
      }
    }
    JOINT RightLeg
    {
      OFFSET -8.303923 2.592729 -10.047278
      CHANNELS 3 Zrotation Yrotation Xrotation
      JOINT RightShin
      {
        OFFSET -43.369682 0.0 1e-06
        CHANNELS 3 Zrotation Yrotation Xrotation
        JOINT RightFoot
        {
          OFFSET -42.260784 4e-06 2e-06
          CHANNELS 3 Zrotation Yrotation Xrotation
          JOINT RightToeBase
          {
            OFFSET -14.222245 -2e-06 -1e-06
            CHANNELS 3 Zrotation Yrotation Xrotation
            JOINT RightToeEnd
            {
              OFFSET -6.660062 0.232574 -2e-06
              CHANNELS 3 Zrotation Yrotation Xrotation
            }
          }
        }
      }
    }
  }
}
MOTION
Frames: 4
Frame Time: 0.03333333333333333
0.0 0.0 0.0 0.0 -0.0 0.0 -1.842744 48.165039 6.278223 86.315422 -57.04319 89.887192 13.07078 -0.73322 -1.645103 -4.542793 -0.522285 -0.123652 19.378458 2.840287 -0.777804 25.961391 -2.969447 3.036397 -2.764715 -0.882874 3.752042 -22.278996 -2.123935 4.098201 6e-06 0.0 -0.0 -0.232889 0.105288 0.001397 -0.413224 0.262304 -0.065008 -0.470406 -0.0397 0.052137 -47.705708 -64.428726 50.205441 90.021454 -12.51326 -31.078568 11.77426 -0.739294 0.11296 31.998293 69.807037 32.492477 17.636631 -26.322725 52.411182 -19.46666 -14.395596 29.410381 1e-06 -8.774821 -3e-06 15.768731 -17.964497 6.808976 -0.609777 -1.795653 -3.889327 -4.807089 -11.046811 -2.93785 4e-06 -20.976015 -0.0 -5.019971 -25.033558 -4.031879 6e-06 -1e-06 1e-06 -10.634535 -5.686971 -3.565587 10.573275 -17.922949 -3.113899 2e-06 -13.821209 2e-06 -0.501778 -31.181505 -4.027016 -10.670791 -59.942547 7.820104 -13.982715 -7.150198 -2.875041 13.772729 -8.401491 -3.218241 0.347732 -34.211552 0.771655 -0.963029 -17.733368 2.621019 0.0 -0.0 0.0 -17.346416 -20.095215 -4.201782 21.757557 -1.638374 3.866428 1e-06 -6.338822 1e-06 -1.69759 -22.591743 -6.194005 -0.0 -4e-06 -2e-06 177.673843 -70.899963 2.523422 93.916962 -9.194592 -34.923603 5.325831 -0.039895 0.045313 68.796616 59.828476 72.322624 22.182116 -20.375896 49.933323 -16.701818 -16.74353 28.476532 -2e-06 -12.690604 -1e-06 16.313503 -17.505209 2.342867 -0.10592 -1.513857 -4.275882 -5.039042 -5.612872 -2.953557 4e-06 -11.020528 -2e-06 -6.111299 -15.895338 -3.840471 -0.0 -2e-06 0.0 -10.283373 -5.68029 -4.341838 11.028296 -11.30241 -2.372634 -1.384268 -14.238584 -6.320123 -0.625439 -26.9242 -3.827602 -4.305847 -49.319565 -4.419215 -13.708526 -7.363479 -3.720938 18.141151 -14.052739 -3.242675 6e-06 -18.787277 -3e-06 -0.429712 -8.456045 2.555505 -0.0 0.0 -0.0 -15.923539 -20.094492 -5.473584 30.419222 -7.190827 1.735925 3e-06 -8.162927 -1e-06 -1.861903 -22.861471 -6.167944 -1e-06 -4e-06 -0.0 110.758392 -13.011697 4.63651 119.35601 0.102883 0.401292 -60.790241 6.698287 -1.742422 -12.035888 1.598548 2.624579 -0.999998 0.0 0.0 -62.812225 -0.382323 -4.303803 116.50621 0.148966 0.245141 -78.068115 -7.381471 2.486123 -19.568758 1.02325 1.400483 -1.000002 0.0 -0.0 
0.0 0.0 0.0 0.0 -0.0 0.0 -1.717941 48.189934 6.379236 86.084435 -57.108997 90.081421 13.002359 -0.614054 -1.595629 -4.606581 -0.495688 -0.092627 19.544191 2.879852 -0.715894 26.101391 -3.065828 2.871429 -2.752787 -0.908844 3.718288 -22.222126 -2.14335 4.056731 6e-06 -0.0 0.0 -0.231713 0.063619 0.000519 -0.387235 0.213373 -0.059944 -0.452992 -0.071514 0.044138 -47.823902 -64.559433 50.673897 90.15387 -12.207423 -31.693266 11.588295 -0.675361 0.106054 33.486996 69.398743 33.66151 17.636625 -26.322725 52.411186 -19.46666 -14.395592 29.410381 -0.0 -8.774817 -2e-06 15.727173 -18.023708 6.863163 -0.609777 -1.795653 -3.889326 -4.807088 -11.046812 -2.93785 4e-06 -20.976015 -0.0 -5.019968 -25.033556 -4.031879 6e-06 -1e-06 1e-06 -10.634531 -5.686968 -3.565587 10.573271 -17.922951 -3.1139 3e-06 -13.821209 1e-06 -0.501777 -31.181505 -4.027017 -10.67638 -60.062855 7.899899 -13.982713 -7.150198 -2.875042 13.772727 -8.40149 -3.21824 0.347733 -34.211552 0.771654 -0.963028 -17.733368 2.621019 -0.0 -0.0 -0.0 -17.346416 -20.095217 -4.20178 21.757555 -1.638373 3.866428 1e-06 -6.338823 1e-06 -1.697589 -22.591745 -6.194007 0.0 -3e-06 -1e-06 177.272018 -70.817169 3.082873 93.932709 -8.837011 -35.048157 5.253291 -0.019117 0.04624 68.451302 59.61454 71.571938 22.182121 -20.375896 49.933323 -16.701815 -16.743526 28.47653 -2e-06 -12.690601 -2e-06 16.23839 -17.465851 2.349893 -0.105919 -1.513857 -4.275882 -5.039041 -5.612873 -2.953557 5e-06 -11.020525 -2e-06 -6.111297 -15.895334 -3.840472 -0.0 -1e-06 0.0 -10.283372 -5.680289 -4.34184 11.028296 -11.302404 -2.372633 -1.384269 -14.238581 -6.320122 -0.625438 -26.924187 -3.827601 -4.268605 -49.313168 -4.406813 -13.708526 -7.363477 -3.720942 18.14115 -14.052739 -3.242674 7e-06 -18.787271 -2e-06 -0.429711 -8.456041 2.555505 -0.0 1e-06 1e-06 -15.923536 -20.094482 -5.473588 30.419218 -7.190828 1.735929 4e-06 -8.162927 -1e-06 -1.8619 -22.861473 -6.167943 -1e-06 -4e-06 -1e-06 110.774788 -13.003793 4.577106 119.271294 0.084821 0.419388 -60.793125 6.582979 -1.552267 -12.085078 1.637087 2.595879 -0.999998 -0.0 -0.0 -62.764748 -0.384511 -4.271325 116.312683 0.166616 0.225312 -77.893852 -7.332088 2.562765 -19.201708 1.0058 1.412983 -1.000002 0.0 -0.0 
0.0 0.0 0.0 0.0 -0.0 0.0 -1.604712 48.196106 6.476335 86.074356 -57.106567 90.151985 12.941442 -0.532154 -1.550785 -4.664062 -0.456452 -0.05558 19.719868 2.872347 -0.71842 26.26285 -3.098679 2.696519 -2.746126 -0.981841 3.677456 -22.282768 -2.22252 4.017033 6e-06 -0.0 0.0 -0.227093 0.028623 0.000587 -0.410637 0.171968 -0.064696 -0.474729 -0.098532 0.045561 -47.630455 -64.663956 50.739059 90.157043 -12.017249 -31.883717 11.54417 -0.587849 0.117354 33.527313 69.124908 33.344116 17.636627 -26.322729 52.411194 -19.466654 -14.395596 29.410389 0.0 -8.774821 -2e-06 15.711874 -18.035442 6.875249 -0.609777 -1.795652 -3.889328 -4.807088 -11.046811 -2.93785 4e-06 -20.976015 -1e-06 -5.019969 -25.033552 -4.031883 6e-06 1e-06 1e-06 -10.634534 -5.686973 -3.565587 10.573272 -17.922947 -3.113899 2e-06 -13.821205 1e-06 -0.501777 -31.181498 -4.027017 -10.591821 -60.131886 7.891291 -13.982714 -7.150197 -2.875043 13.772727 -8.401489 -3.21824 0.347733 -34.211544 0.771656 -0.963029 -17.733366 2.62102 -0.0 -0.0 -0.0 -17.346416 -20.095211 -4.201784 21.757555 -1.638377 3.866429 2e-06 -6.338821 1e-06 -1.69759 -22.591747 -6.194007 0.0 -5e-06 -3e-06 177.123306 -70.749954 3.393364 93.768753 -8.525008 -35.070549 5.28514 -0.067681 0.046039 68.458725 59.406185 71.659279 22.182117 -20.375895 49.933315 -16.701805 -16.743526 28.476519 -2e-06 -12.690598 -2e-06 16.182489 -17.400963 2.377165 -0.105919 -1.513856 -4.275881 -5.039041 -5.612869 -2.953556 4e-06 -11.02052 -2e-06 -6.111297 -15.895328 -3.84047 -0.0 -1e-06 0.0 -10.283367 -5.680288 -4.341838 11.028291 -11.302402 -2.372632 -1.384268 -14.238574 -6.320119 -0.625439 -26.924183 -3.8276 -4.234428 -49.269855 -4.403485 -13.708525 -7.363474 -3.720939 18.141146 -14.052739 -3.242673 6e-06 -18.78727 -1e-06 -0.429711 -8.456038 2.555504 -0.0 0.0 -1e-06 -15.923532 -20.094479 -5.473586 30.419207 -7.190825 1.735929 2e-06 -8.162921 0.0 -1.861902 -22.861467 -6.167942 -0.0 -3e-06 -1e-06 110.926086 -12.871041 4.446585 119.21389 0.0832 0.437192 -61.07222 6.454185 -1.451334 -12.279528 1.650719 2.581901 -0.999998 -0.0 -0.0 -62.63707 -0.453002 -4.148812 116.180771 0.157516 0.218584 -77.795242 -7.199632 2.529782 -19.112383 0.99672 1.425607 -1.000002 -0.0 0.0 
0.0 0.0 0.0 0.0 -0.0 0.0 -1.524505 48.195389 6.541115 86.113831 -57.122417 90.216751 12.884449 -0.478556 -1.516386 -4.701883 -0.427224 -0.037746 19.838068 2.904943 -0.760027 26.361248 -3.146588 2.523116 -2.733965 -1.040173 3.640538 -22.415205 -2.284971 4.020819 6e-06 0.0 0.0 -0.223085 0.003858 0.000577 -0.452152 0.145056 -0.073615 -0.507239 -0.121331 0.051788 -47.471062 -64.769279 50.815544 90.079231 -11.854935 -32.037964 11.593273 -0.531109 0.118809 33.575214 69.002876 33.324745 17.636625 -26.322729 52.411194 -19.466663 -14.395596 29.410385 -1e-06 -8.774821 -2e-06 15.678889 -18.034084 6.892169 -0.609776 -1.795655 -3.889327 -4.807088 -11.046807 -2.93785 5e-06 -20.976011 -1e-06 -5.019969 -25.033545 -4.03188 7e-06 0.0 1e-06 -10.634532 -5.686968 -3.565588 10.573271 -17.922947 -3.113899 3e-06 -13.821205 1e-06 -0.501777 -31.181488 -4.027013 -10.565041 -60.166145 7.865847 -13.982712 -7.150196 -2.875043 13.772728 -8.401493 -3.21824 0.347735 -34.211536 0.771655 -0.963028 -17.733364 2.621019 -0.0 0.0 -0.0 -17.346415 -20.095213 -4.201783 21.757555 -1.638376 3.866428 2e-06 -6.338821 1e-06 -1.697588 -22.591738 -6.194006 0.0 -3e-06 -2e-06 177.000381 -70.654282 3.614608 93.579628 -8.337557 -35.038475 5.44809 -0.106489 0.046714 68.618919 59.217926 72.052094 22.182116 -20.375895 49.933319 -16.701807 -16.743528 28.476524 -1e-06 -12.690598 -2e-06 16.192169 -17.347158 2.396626 -0.105919 -1.513856 -4.275881 -5.039041 -5.612868 -2.953556 4e-06 -11.020521 -2e-06 -6.111297 -15.89533 -3.84047 0.0 -1e-06 0.0 -10.283369 -5.680285 -4.341838 11.028293 -11.302402 -2.372631 -1.384268 -14.238574 -6.320119 -0.62544 -26.924179 -3.827598 -4.213631 -49.289612 -4.381362 -13.708522 -7.363474 -3.720939 18.141146 -14.052734 -3.242671 5e-06 -18.787266 -0.0 -0.429712 -8.456041 2.555504 0.0 2e-06 -0.0 -15.923532 -20.094479 -5.473584 30.419207 -7.190824 1.735929 2e-06 -8.162925 0.0 -1.861902 -22.861467 -6.167942 -1e-06 -2e-06 -1e-06 111.025421 -12.680967 4.382204 119.219536 0.092892 0.449823 -61.561935 6.394518 -1.377408 -12.626101 1.6605 2.567222 -0.999999 -0.0 -0.0 -62.556011 -0.535852 -4.009504 116.125481 0.176363 0.217608 -77.923477 -7.156625 2.415692 -19.190521 0.99393 1.43969 -1.000003 0.0 0.0 
